<svg width="128" height="128" viewBox="0 0 128 128" fill="none" xmlns="http://www.w3.org/2000/svg">
<g clip-path="url(#clip0_768_20)">
<rect width="128" height="128" rx="64" fill="white"/>
<path d="M63.3901 8.00092C58.7671 8.02219 54.3522 8.41267 50.4676 9.09342C39.024 11.0956 36.9463 15.2865 36.9463 23.015V33.2222H63.9889V36.6245H36.9463H26.7975C18.9381 36.6245 12.0563 41.3029 9.90373 50.2028C7.42079 60.4041 7.31065 66.7699 9.90373 77.4217C11.826 85.3505 16.4167 91 24.276 91H33.5739V78.764C33.5739 69.9241 41.2967 62.1267 50.4676 62.1267H77.4787C84.9976 62.1267 91 55.9955 91 48.5172V23.015C91 15.757 84.8174 10.3048 77.4787 9.09342C72.8332 8.32757 68.0131 7.97964 63.3901 8.00092ZM48.7656 16.2103C51.559 16.2103 53.8401 18.5063 53.8401 21.3295C53.8401 24.1426 51.559 26.4174 48.7656 26.4174C45.9623 26.4174 43.6912 24.1426 43.6912 21.3295C43.6912 18.5063 45.9623 16.2103 48.7656 16.2103Z" fill="black"/>
<path d="M94.3094 37V48.8022C94.3094 57.9523 86.4324 65.6536 77.45 65.6536H50.4938C43.1101 65.6536 37 71.8772 37 79.1595V104.468C37 111.67 43.3599 115.907 50.4938 117.974C59.0366 120.447 67.2287 120.894 77.45 117.974C84.2443 116.036 90.9439 112.137 90.9439 104.468V94.3382H63.9877V90.9617H90.9439H104.438C112.281 90.9617 115.204 85.5738 117.932 77.4868C120.749 69.1613 120.629 61.155 117.932 50.4749C115.993 42.7853 112.291 37 104.438 37H94.3094ZM79.1486 101.091C81.9462 101.091 84.2127 103.349 84.2127 106.14C84.2127 108.942 81.9462 111.221 79.1486 111.221C76.3609 111.221 74.0844 108.942 74.0844 106.14C74.0844 103.349 76.3609 101.091 79.1486 101.091Z" fill="black"/>
</g>
<defs>
<clipPath id="clip0_768_20">
<rect width="128" height="128" rx="64" fill="white"/>
</clipPath>
</defs>
</svg>
