<svg width="20" height="20" viewBox="0 0 20 20" fill="none" xmlns="http://www.w3.org/2000/svg">
<g clip-path="url(#clip0_699_143)">
<circle cx="10" cy="10" r="2" stroke="white" stroke-width="2"/>
<path d="M10.8 19H9.2C8.64772 19 8.2 18.5523 8.2 18V17.5084C8.2 17.1889 8.04733 16.8887 7.78917 16.7004L5.60001 15.1042C5.30112 14.8862 4.90633 14.8511 4.57364 15.0128L3.76583 15.4055C3.35015 15.6076 2.85014 15.4984 2.55646 15.1415L1.62508 14.0096C1.27821 13.5881 1.33351 12.9663 1.74931 12.6126L2.7051 11.7995C2.92844 11.6095 3.05714 11.331 3.05714 11.0378V8.9622C3.05714 8.66897 2.92844 8.39052 2.7051 8.20052L1.74931 7.38743C1.33351 7.03371 1.27821 6.41189 1.62508 5.99036L2.59718 4.80898C2.87164 4.47544 3.32924 4.35581 3.73181 4.51237L5.17896 5.07515C5.46304 5.18562 5.78199 5.16051 6.04527 5.00692L7.70387 4.03941C8.01109 3.8602 8.2 3.5313 8.2 3.17563V2C8.2 1.44772 8.64772 1 9.2 1H10.8C11.3523 1 11.8 1.44772 11.8 2V3.12422C11.8 3.50702 12.0185 3.85623 12.3628 4.02359L14.4485 5.03748C14.7245 5.17165 15.0469 5.17165 15.3229 5.03748L16.2342 4.5945C16.6499 4.39243 17.1499 4.50157 17.4435 4.85847L18.3749 5.99036C18.7218 6.41189 18.6665 7.03371 18.2507 7.38743L17.2949 8.20052C17.0716 8.39052 16.9429 8.66897 16.9429 8.9622V11.0378C16.9429 11.331 17.0716 11.6095 17.2949 11.7995L18.2507 12.6126C18.6665 12.9663 18.7218 13.5881 18.3749 14.0096L17.4435 15.1415C17.1499 15.4984 16.6499 15.6076 16.2342 15.4055L15.4264 15.0128C15.0937 14.8511 14.6989 14.8862 14.4 15.1042L12.2108 16.7004C11.9527 16.8887 11.8 17.1889 11.8 17.5084V18C11.8 18.5523 11.3523 19 10.8 19Z" stroke="white" stroke-width="2"/>
</g>
<defs>
<clipPath id="clip0_699_143">
<rect width="20" height="20" fill="white"/>
</clipPath>
</defs>
</svg>
