<svg width="50" height="38" viewBox="0 0 50 38" fill="none" xmlns="http://www.w3.org/2000/svg">
<path fill-rule="evenodd" clip-rule="evenodd" d="M0.606934 31.8498V2.02042C0.606934 0.904576 1.51288 0 2.63042 0H17.5677C19.0719 0 20.0503 1.5806 19.3776 2.92399L4.44028 32.7534C3.48538 34.6603 0.606934 33.9818 0.606934 31.8498ZM50.3847 31.8498V2.02042C50.3847 0.904576 49.4786 0 48.3612 0H33.4239C31.9197 0 30.9413 1.5806 31.614 2.92399L46.5514 32.7534C47.5061 34.6603 50.3847 33.9818 50.3847 31.8498ZM26.5076 35.1554V5.32596C26.5076 3.19398 29.386 2.51549 30.3409 4.42243L45.2782 34.2518C45.9508 35.5952 44.9727 37.1758 43.4684 37.1758H28.5311C27.4135 37.1758 26.5076 36.2712 26.5076 35.1554ZM24.4841 5.32596V35.1554C24.4841 36.2712 23.5781 37.1758 22.4606 37.1758H7.52329C6.01907 37.1758 5.04072 35.5952 5.71341 34.2518L20.6507 4.42243C21.6056 2.51549 24.4841 3.19398 24.4841 5.32596Z" fill="white"/>
</svg>
